<?xml version="1.0" encoding="utf-8"?>
<!-- Generator: Adobe Illustrator 25.1.0, SVG Export Plug-In . SVG Version: 6.00 Build 0)  -->
<svg version="1.1" id="Livello_1" xmlns="http://www.w3.org/2000/svg" xmlns:xlink="http://www.w3.org/1999/xlink" x="0px" y="0px"
	 viewBox="0 0 32 40" style="enable-background:new 0 0 32 40;" xml:space="preserve">
<style type="text/css">
	.st0{fill:#999999;}
</style>
<g>
	<path class="st0" d="M18,8c0,2.1,0,14.4,0,16c0,2,2,2.6,3.1,1.5l8.2-8.1c0.7-0.7,0.8-2,0-2.7l-8.2-8.1C20.3,5.5,18,6,18,8z"/>
	<path class="st0" d="M13.4,17.4c0.7-0.7,0.8-2,0-2.7L5.3,6.5C4.3,5.5,2,6,2,8c0,2.1,0,14.4,0,16c0,2,2,2.6,3.1,1.5L13.4,17.4z"/>
</g>
</svg>
