<?xml version="1.0" encoding="utf-8"?>
<!-- Generator: Adobe Illustrator 25.1.0, SVG Export Plug-In . SVG Version: 6.00 Build 0)  -->
<svg version="1.1" id="Livello_1" xmlns="http://www.w3.org/2000/svg" xmlns:xlink="http://www.w3.org/1999/xlink" x="0px" y="0px"
	 viewBox="0 0 83.3 89.7" style="enable-background:new 0 0 83.3 89.7;" xml:space="preserve">
<style type="text/css">
	.st0{fill:#999999;}
	.st1{font-family:'RobotoSlab-Regular';}
	.st2{font-size:9px;}
</style>
<g>
	<path class="st0" d="M78.8,22.9v36.8c0,1.6-1.3,2.8-2.8,2.8H64V44.9c0-11.4-9.3-20.8-20.8-20.8v-1.2c0-9.8,7.9-17.8,17.8-17.8
		C70.8,5.2,78.8,13.1,78.8,22.9z"/>
</g>
<g>
	<path class="st0" d="M37.9,24.9c-8.8,2.4-15.3,10.5-15.3,20v28.6h-15c-1.6,0-2.8-1.3-2.8-2.8V33.8C4.8,24,12.7,16,22.6,16
		C29.1,16.1,34.8,19.6,37.9,24.9z"/>
</g>
<g>
	<path class="st0" d="M43.4,27.9c8.3,0,16.8,7.8,16.8,15.7v38.7H26.4V43.5C26.4,35.6,35.2,27.9,43.4,27.9 M43.5,25.2
		C32.7,25.2,24,33.4,24,43.7v38l0,0c0,1.7,1.4,2.9,3.1,2.9h32.6c1.8,0,3.1-1.3,3.1-2.9l0,0v-38C63,33.5,54.2,25.2,43.5,25.2
		L43.5,25.2z"/>
</g>
<g>
	<path class="st0" d="M27.7,8.4V10c0,0.3-0.3,0.6-0.6,0.6h-4.3v9.3c0,0.3-0.3,0.6-0.6,0.6h-1.7c-0.3,0-0.6-0.3-0.6-0.6v-9.3h-4.3
		c-0.3,0-0.6-0.3-0.6-0.6V8.4c0-0.3,0.3-0.6,0.6-0.6h4.3V3.4c0-0.3,0.3-0.6,0.6-0.6h1.7c0.3,0,0.6,0.3,0.6,0.6v4.3h4.3
		C27.4,7.8,27.7,8,27.7,8.4z"/>
</g>
<text transform="matrix(1 0 0 1 27.9189 52.648)"><tspan x="0" y="0" class="st0 st1 st2">Ronnie</tspan><tspan x="5.1" y="10.8" class="st0 st1 st2">Pinn</tspan></text>
</svg>
