<?xml version="1.0" encoding="utf-8"?>
<!-- Generator: Adobe Illustrator 25.1.0, SVG Export Plug-In . SVG Version: 6.00 Build 0)  -->
<svg version="1.1" id="Livello_1" xmlns="http://www.w3.org/2000/svg" xmlns:xlink="http://www.w3.org/1999/xlink" x="0px" y="0px"
	 viewBox="0 0 100 125" style="enable-background:new 0 0 100 125;" xml:space="preserve">
<style type="text/css">
	.st0{fill-rule:evenodd;clip-rule:evenodd;}
</style>
<g>
	<path class="st0" d="M57.5,43.3c3.3-2.3,5.5-5.8,5.5-9.8c0-2.9-1.1-5.5-2.9-7.6c1.3-2.5,2.2-6.5,2.2-10.9c0-7.7-2.6-11.1-5.7-11.1
		c-3.2,0-5.7,3.4-5.7,11.1c0,2.3,0.2,4.4,0.6,6.3c-0.7-0.1-1.4-0.2-2.2-0.2c-0.7,0-1.3,0.1-2,0.1c0.4-1.9,0.6-4,0.6-6.3
		c0-7.7-2.6-11.1-5.7-11.1s-5.7,3.4-5.7,11.1c0,4.3,0.8,8.2,2.1,10.8c-1.9,2.1-3,4.8-3,7.7c0,4,2.2,7.6,5.5,9.9
		c-13.1,0.9-22.6,3.7-22.6,7c0,4,14,7.3,31.2,7.3s31.2-3.3,31.2-7.3C80.8,46.9,70.9,44.1,57.5,43.3z"/>
	<path class="st0" d="M65.5,60.9c-4.8,0.8-10.2,1.2-16,1.2c-6,0-11.6-0.5-16.6-1.3l-5.1,26.8c0,0-0.3,1.1,0.8,1.7
		c6.3,3.4,13.4,5.4,20.9,5.4c7.3,0,14.2-1.8,20.4-5.1c1-0.6,0.7-2,0.7-2L65.5,60.9z"/>
</g>
</svg>
